<?xml version="1.0" standalone="no"?>
<!DOCTYPE svg PUBLIC "-//W3C//DTD SVG 1.1//EN" "http://www.w3.org/Graphics/SVG/1.1/DTD/svg11.dtd" >
<svg xmlns="http://www.w3.org/2000/svg">
<metadata>
Created by FontForge 20120731 at Mon Apr 10 17:41:31 2017
 By admin
</metadata>
<defs>
<font id="iconfont" horiz-adv-x="1024" >
  <font-face 
    font-family="iconfont"
    font-weight="500"
    font-stretch="normal"
    units-per-em="1024"
    panose-1="2 0 6 3 0 0 0 0 0 0"
    ascent="896"
    descent="-128"
    x-height="792"
    bbox="0 -212.136 1312 896"
    underline-thickness="0"
    underline-position="0"
    unicode-range="U+0078-E7EE"
  />
<missing-glyph 
 />
    <glyph glyph-name=".notdef" 
 />
    <glyph glyph-name=".notdef" 
 />
    <glyph glyph-name=".null" horiz-adv-x="0" 
 />
    <glyph glyph-name="nonmarkingreturn" horiz-adv-x="341" 
 />
    <glyph glyph-name="x" unicode="x" horiz-adv-x="1001" 
d="M281 543q-27 -1 -53 -1h-83q-18 0 -36.5 -6t-32.5 -18.5t-23 -32t-9 -45.5v-76h912v41q0 16 -0.5 30t-0.5 18q0 13 -5 29t-17 29.5t-31.5 22.5t-49.5 9h-133v-97h-438v97zM955 310v-52q0 -23 0.5 -52t0.5 -58t-10.5 -47.5t-26 -30t-33 -16t-31.5 -4.5q-14 -1 -29.5 -0.5
t-29.5 0.5h-32l-45 128h-439l-44 -128h-29h-34q-20 0 -45 1q-25 0 -41 9.5t-25.5 23t-13.5 29.5t-4 30v167h911zM163 247q-12 0 -21 -8.5t-9 -21.5t9 -21.5t21 -8.5q13 0 22 8.5t9 21.5t-9 21.5t-22 8.5zM316 123q-8 -26 -14 -48q-5 -19 -10.5 -37t-7.5 -25t-3 -15t1 -14.5
t9.5 -10.5t21.5 -4h37h67h81h80h64h36q23 0 34 12t2 38q-5 13 -9.5 30.5t-9.5 34.5q-5 19 -11 39h-368zM336 498v228q0 11 2.5 23t10 21.5t20.5 15.5t34 6h188q31 0 51.5 -14.5t20.5 -52.5v-227h-327z" />
    <glyph glyph-name="icon" unicode="&#xe602;" 
d="M510.5 752q-90.5 0 -173 -35t-142 -95.5t-94.5 -143.5t-35 -174t35 -174t94.5 -143t142 -95.5t173 -35.5t173 35.5t142 95.5t94.5 143t35 174t-35 174t-94.5 143.5t-142 95.5t-173 35zM232 25q1 -6 -3 -10t-11 -4h-1q-15 0 -16 11q-14 161 67 283q16 24 40 49
q-5 11 -5 23q0 25 17.5 42t41.5 17t41 -17.5t17 -42t-17 -41.5t-41 -17q-18 0 -34 10q-22 -23 -34 -42q-75 -113 -62 -261zM359 196q-20 0 -39 4q-7 1 -10.5 7t-1.5 12q1 6 6.5 9.5t12.5 2.5q16 -4 32 -4q60 0 103 43t43 103.5t-43 103.5t-103 43t-102.5 -43t-42.5 -104
q0 -35 16 -66q3 -6 1 -12.5t-8 -8.5q-14 -8 -21 6q-19 38 -19 81q0 74 51.5 126t124.5 52t125 -52t52 -125.5t-52 -125.5t-125 -52zM688 402q-25 0 -46 10q-38 18 -51.5 57.5t4 77t56.5 52t76.5 -3.5t51.5 -57.5t-4 -77.5q-6 -11 -12 -19q-5 -7 -12 -1.5t-1.5 12.5t9.5 16
q15 31 3.5 63.5t-42.5 46.5q-31 15 -63 3.5t-47 -42.5q-14 -31 -2.5 -63.5t41.5 -46.5q19 -9 38 -8q9 0 9 -9q1 -9 -8 -10zM826 335q-85 32 -128 104q-9 16 -15 33q-7 0 -13 3q-13 6 -17.5 19t1.5 25.5t18.5 17.5t25 -1t17 -19t-0.5 -26q-5 -9 -14 -14q6 -15 14 -29
q39 -66 119 -96q8 -3 5 -11v-0.5v-0.5q-4 -7 -12 -5z" />
    <glyph glyph-name="tengxunweiboyin" unicode="&#xe613;" 
d="M512 812q-104 0 -199 -40.5t-163.5 -109t-109 -163.5t-40.5 -199t40.5 -199t109 -163.5t163.5 -109t199 -40.5t199 40.5t163.5 109t109 163.5t40.5 199t-40.5 199t-109 163.5t-163.5 109t-199 40.5zM192 -21q1 -7 -4 -12t-13 -5h-1q-17 0 -18 14q-17 184 77 323
q20 30 46 57q-5 13 -5 27q0 28 19.5 47.5t47.5 19.5t47.5 -19.5t19.5 -47.5t-19.5 -48t-47.5 -20q-21 0 -39 13q-23 -25 -39 -50q-87 -129 -71 -299zM338 176q-23 0 -46 5q-7 2 -11 8t-2 14q2 7 8 11t13 2q18 -4 38 -4q69 0 118 49t49 118t-49 118t-118 49t-118 -49
t-49 -118q0 -41 18 -76q4 -7 1.5 -14t-9.5 -10q-6 -4 -13 -1.5t-11 8.5q-22 43 -22 93q0 84 59.5 143.5t143.5 59.5t143.5 -59.5t59.5 -143.5t-59.5 -143.5t-143.5 -59.5zM716 412q-28 -1 -53 11q-43 21 -59 66t4.5 88t65.5 59t88 -4.5t59 -65.5t-4 -88q-7 -13 -14 -22
q-6 -8 -14.5 -2t-2 14t11.5 19q17 35 4 72t-49 54q-35 17 -72 3.5t-54 -48.5t-4 -72t49 -54q21 -10 43 -9q11 0 11 -10t-10 -11zM876 335q-99 37 -148 119q-11 19 -18 38q-7 0 -15 3q-14 7 -19.5 22t1.5 29t21.5 19.5t29 -1.5t20 -21.5t-1.5 -29.5q-6 -11 -16 -16
q7 -18 17 -33q44 -76 136 -109q9 -4 6 -13v-1v0q-5 -9 -13 -6z" />
    <glyph glyph-name="tengxunweiboyin1" unicode="&#xe7ee;" 
d="M512 812q-104 0 -199 -40.5t-163.5 -109t-109 -163.5t-40.5 -199t40.5 -199t109 -163.5t163.5 -109t199 -40.5t199 40.5t163.5 109t109 163.5t40.5 199t-40.5 199t-109 163.5t-163.5 109t-199 40.5zM192 -21q1 -7 -4 -12t-13 -5h-1q-17 0 -18 14q-17 184 77 323
q20 30 46 57q-5 13 -5 27q0 28 19.5 47.5t47.5 19.5t47.5 -19.5t19.5 -47.5t-19.5 -48t-47.5 -20q-21 0 -39 13q-23 -25 -39 -50q-87 -129 -71 -299zM338 176q-23 0 -46 5q-7 2 -11 8t-2 14q2 7 8 11t13 2q18 -4 38 -4q69 0 118 49t49 118t-49 118t-118 49t-118 -49
t-49 -118q0 -41 18 -76q4 -7 1.5 -14t-9.5 -10q-6 -4 -13 -1.5t-11 8.5q-22 43 -22 93q0 84 59.5 143.5t143.5 59.5t143.5 -59.5t59.5 -143.5t-59.5 -143.5t-143.5 -59.5zM716 412q-28 -1 -53 11q-43 21 -59 66t4.5 88t65.5 59t88 -4.5t59 -65.5t-4 -88q-7 -13 -14 -22
q-6 -8 -14.5 -2t-2 14t11.5 19q17 35 4 72t-49 54q-35 17 -72 3.5t-54 -48.5t-4 -72t49 -54q21 -10 43 -9q11 0 11 -10t-10 -11zM876 335q-99 37 -148 119q-11 19 -18 38q-7 0 -15 3q-14 7 -19.5 22t1.5 29t21.5 19.5t29 -1.5t20 -21.5t-1.5 -29.5q-6 -11 -16 -16
q7 -18 17 -33q44 -76 136 -109q9 -4 6 -13v-1v0q-5 -9 -13 -6z" />
    <glyph glyph-name="chaxun" unicode="&#xe68c;" 
d="M609 259l-2 -1q0 -1 -1 -1q-10 -14 -25 -27.5t-41.5 -32.5t-63 -31t-76.5 -12q-106 0 -181.5 75.5t-75.5 182.5t75.5 182.5t182 75.5t182 -75.5t75.5 -182.5q0 -56 -23 -107l-1 -1l1 -1l5 -5q9 -8 51 -50l1 -1l1 2q43 76 43 163q0 139 -98.5 237.5t-237.5 98.5
t-237 -98.5t-98 -237.5t98 -237.5t237 -98.5q59 0 113 20q52 19 95 53l296 -296l55 55z" />
    <glyph glyph-name="shoucang" unicode="&#xe695;" 
d="M14 300v0q0 -101 39.5 -193.5t106 -159t159 -106t193.5 -39.5t193.5 39.5t159 106t106 159t39.5 193.5t-39.5 193.5t-106 159t-159 106t-193.5 39.5t-193.5 -39.5t-159 -106t-106 -159t-39.5 -193.5v0v0zM0 300q0 139 68.5 257t186.5 186.5t257 68.5t257 -68.5
t186.5 -186.5t68.5 -257t-68.5 -257t-186.5 -186.5t-257 -68.5t-257 68.5t-186.5 186.5t-68.5 257zM614 463q4 -1 7 -1q32 -3 55.5 -30t26.5 -69v-22q-3 -44 -42.5 -87.5t-137.5 -112.5q-12 -8 -22 0q-97 68 -136.5 112t-43.5 89v22q3 41 26.5 67.5t54.5 30.5q7 1 17 1
q27 0 44 -9.5t41 -35.5l8 -10l9 10q21 25 39 35t45 10v22q-33 0 -55.5 -12t-46.5 -41h17q-26 30 -47.5 41.5t-53.5 11.5q-12 0 -20 -1q-39 -5 -67.5 -37.5t-32.5 -81.5v-24q4 -52 45.5 -99t143.5 -119q10 -8 23.5 -8t24.5 8q103 72 144.5 119.5t44.5 97.5v24q-4 50 -33 83
t-68 37l-1 -11l2 11q-4 0 -10 1h-10v-22h9z" />
    <glyph glyph-name="qq" unicode="&#xe678;" 
d="M511 812q-159 0 -292 -93.5t-188 -242.5q-55 -152 -12 -310t167 -261t287.5 -115.5t301.5 70.5t204 232.5t35 307.5q-32 157 -149 269t-274 137q-40 6 -80 6v0zM869 165q0 -47 -18 -63q-15 -15 -35 14q-14 29 -16 29q-4 0 -8.5 -12t-4.5 -17q-14 -35 -43 -63q6 -6 28 -17
t33.5 -23.5t4.5 -29.5q-15 -37 -102 -43q-69 -3 -125 14q-41 13 -59 13q-11 1 -31 -10t-25 -13q-47 -16 -131 -8q-1 0 -5 1q-16 2 -26 4t-26 7t-25.5 14t-11.5 21q-3 23 11 41q9 9 20 12q1 1 13 2.5t16 3.5q1 3 1 4t-4.5 4.5t-4.5 4.5q-9 6 -23 20q-22 25 -31 51q0 2 -2 8
t-3.5 11.5t-2.5 5.5q-2 1 -3 -0.5t-1.5 -4.5t-1.5 -3q-16 -33 -41 -41q-4 -2 -7.5 -2t-6 1t-4 3.5t-2.5 4.5t-2 7t-1.5 7t-0.5 7q-4 38 4 64q14 58 61 108q16 17 27 25q7 5 7.5 6.5t0.5 11.5q-1 4 -1.5 11.5t-1 11t0 8.5t2 10.5t4.5 11.5q1 3 9 13.5t9 15.5q1 2 6 29
q3 23 19 59q29 61 80 102q32 26 76.5 37t88.5 8.5t84 -16.5q64 -21 103 -73t48 -121q1 -5 2 -14t2 -13q2 -5 8 -13.5t7 -13.5q9 -22 2 -57q-2 -7 2.5 -16.5t13 -21.5t10.5 -15q21 -41 29 -62q-1 -10 1.5 -31.5t2.5 -29.5v0zM869 165z" />
    <glyph glyph-name="xuanzeriqi" unicode="&#xe686;" 
d="M512 877q-102 0 -194.5 -40t-160 -107t-107 -160t-39.5 -195t39.5 -195t107 -160t160 -106.5t194.5 -39.5t195 39.5t160 106.5t107 160t40 195t-40 195t-107 160t-160 107t-195 40zM512 -102q-97 0 -185 38t-152 101.5t-102 152t-38 185.5t38 185.5t102 152.5t152 101.5
t185 37.5t185.5 -37.5t152.5 -101.5t101.5 -152.5t37.5 -185.5t-37.5 -185.5t-101.5 -152t-152.5 -101.5t-185.5 -38zM712 593h-408q-8 0 -12.5 -5t-4.5 -12v-408q0 -7 4.5 -12t12.5 -5h408q7 0 12 5t5 12v408q0 7 -5 12t-12 5zM705 173h-394v294h394v-294zM705 487h-394v83
h35v-27q0 -7 5.5 -12.5t12.5 -5.5q8 0 13 5.5t5 12.5v27h60v-27q0 -7 5.5 -12.5t13 -5.5t12.5 5.5t5 12.5v27h60v-27q0 -7 5.5 -12.5t13 -5.5t12.5 5.5t5 12.5v27h60v-27q0 -7 5.5 -12.5t12.5 -5.5t12.5 5.5t5.5 12.5v27h35v-83zM489 419v0q-8 9 -20 9t-21 -9v0
q-8 -8 -8 -20t8 -21v0q9 -8 21 -8t20.5 8.5t8.5 20.5t-9 20zM475 393q-3 -3 -6.5 -3t-5.5 3q-3 2 -3 6t3 6v0q2 2 6 2t6 -2v0q2 -2 2 -6t-2 -6zM489 342v0q-8 9 -20 9t-21 -9v0q-8 -9 -8 -20.5t8 -20.5v0q9 -8 21 -8t20 8v0q9 9 9 20.5t-9 20.5zM475 316q-2 -3 -6 -3
t-6.5 2.5t-2.5 6.5t3 6v0q2 2 6 2t6 -2v0q2 -2 2 -6t-2 -6zM647 419q-9 9 -21 9t-20 -9h-1q-8 -9 -8 -20t8 -21q9 -8 21 -8t20.5 8.5t8.5 20.5t-8 20zM633 392q-3 -3 -7 -3t-7 3q-3 2 -3 7q0 4 3 7v0q3 3 7 3t7 -3v0q3 -3 3 -7t-3 -7zM568 419v0q-9 9 -21 9t-20 -9v0
q-9 -9 -9 -20t9 -21v0q8 -8 20.5 -8t20.5 8.5t8 20.5t-8 20zM553 393q-2 -3 -6 -3q-3 0 -6 3q-2 2 -2 6q0 3 2 6v0q3 2 6 2q4 0 6 -2v0q3 -2 3 -6t-3 -6zM489 265v0q-8 9 -20 9t-21 -9v0q-8 -9 -8 -20q0 -12 8 -21v0q9 -8 21 -8t20 8v0q9 9 9 21q0 11 -9 20zM475 239v0
q-2 -3 -6 -3t-6 3v0q-3 2 -3 6q0 3 3 6v0q2 2 6 2t6 -2v0q2 -2 2 -6t-2 -6zM568 265v0q-9 9 -21 9q-11 0 -20 -9v0q-9 -9 -9 -20q0 -12 9 -21v0q8 -8 20 -8q13 0 21 8v0q8 9 8 21t-8 20zM553 239v0q-2 -3 -6 -3q-3 0 -6 3v0q-2 2 -2 6q0 3 2 6v0q3 2 6 2q4 0 6 -2v0
q3 -3 3 -6q0 -4 -3 -6zM411 342v0q-9 9 -21 9t-20 -9q-9 -8 -9 -20t8.5 -20.5t20.5 -8.5t21 8v0q8 9 8 21t-8 20zM396 316q-2 -3 -6 -3q-3 0 -5.5 2.5t-2.5 6.5t2 6v0q3 2 6 2q4 0 6 -2v0q3 -2 3 -6t-3 -6zM411 265v0q-9 9 -21 9q-11 0 -20 -9q-9 -8 -9 -20t8.5 -20.5
t20.5 -8.5t21 8v0q8 9 8 21t-8 20zM396 239v0q-2 -3 -6 -3q-3 0 -6 3v0q-2 2 -2 6q0 3 2 6v0q3 2 6 2q4 0 6 -2v0q3 -3 3 -6q0 -4 -3 -6zM568 342v0q-8 9 -21 9q-12 0 -20 -9v0q-9 -9 -9 -20.5t9 -20.5v0q8 -8 20 -8q13 0 21 8v0q8 9 8 21t-8 20zM553 316q-2 -3 -6 -3
q-3 0 -5.5 2.5t-2.5 6.5t2 6v0q3 2 6 2q4 0 6 -2v0q3 -2 3 -6t-3 -6zM646.5 342.5q-8.5 8.5 -20.5 8.5t-20 -9h-1q-8 -9 -8 -20.5t8 -20.5h1q8 -8 20 -8t20.5 8.5t8.5 20.5t-8.5 20.5zM631.5 315.5q-2.5 -2.5 -6 -2.5t-5.5 3q-2 2 -2 6t2 6v0q2 2 5.5 2t6.5 -2v0q2 -2 2 -6
t-2.5 -6.5z" />
    <glyph glyph-name="cai" unicode="&#xe60e;" 
d="M1022 384q0 104 -40.5 198t-109 162.5t-162.5 109t-198 40.5t-198 -40.5t-162.5 -109t-109 -162.5t-40.5 -198t40.5 -198t109 -162.5t162.5 -109t198 -40.5t198 40.5t162.5 109t109 162.5t40.5 198zM353 292q0 -11 -6.5 -17.5t-13.5 -7.5l-6 -1h-102q-9 0 -14.5 5.5
t-5.5 10.5l-1 5l21 340q0 9 5.5 14.5t10.5 6.5h6h87q9 0 13.5 -3.5t4.5 -6.5l1 -4v-342zM820 307q0 -20 -10.5 -30t-21.5 -10l-11 -1h-169q13 -49 18 -90t2 -66.5t-10.5 -45.5t-16 -29.5t-18.5 -15.5t-14 -7t-6 -1v0q-16 0 -25.5 6t-11.5 13t-2.5 15t-1.5 9q0 25 -7 49.5
t-18 45t-24.5 39t-27 33t-24.5 24.5t-18 15.5l-7 5.5v337q0 22 22 33.5t41 11.5h255q10 0 21 -15.5t16 -31.5l6 -16q63 -213 63 -278v0z" />
    <glyph glyph-name="fenxiang" unicode="&#xe6a3;" 
d="M512 835q-94 0 -179 -36.5t-147 -98.5t-98.5 -147t-36.5 -179t36.5 -179t98.5 -147t147 -98.5t179 -36.5t179 36.5t147 98.5t98.5 147t36.5 179t-36.5 179t-98.5 147t-147 98.5t-179 36.5zM512 -55q-116 0 -215 57.5t-156 156.5t-57 215t57 215t156 156t215 57t215 -57
t156 -156t57 -215t-57 -215t-156 -156.5t-215 -57.5zM626 284q-38 0 -62 -29l-136 76q5 14 5 27q0 14 -5 28l103 68q23 -19 52 -19q33 0 57 23.5t24 57.5t-24 57.5t-57.5 23.5t-57.5 -23.5t-24 -57.5q0 -19 10 -37l-100 -65q-24 26 -59 26q-34 0 -58 -24t-24 -57.5t24 -57.5
t58 -24q35 0 59 26l137 -77q-3 -12 -3 -23q0 -34 23.5 -57.5t57.5 -23.5t57.5 23.5t23.5 57.5t-23.5 57.5t-57.5 23.5zM583 565q20 0 34.5 -14.5t14.5 -34.5t-14.5 -34.5t-34.5 -14.5t-34.5 14.5t-14.5 34.5t14.5 34.5t34.5 14.5zM352 309q-20 0 -34.5 14.5t-14.5 34.5
t14.5 34.5t34.5 14.5t34.5 -14.5t14.5 -34.5t-14.5 -34.5t-34.5 -14.5zM626 154q-20 0 -34.5 14.5t-14.5 34.5t14.5 34.5t34.5 14.5t34.5 -14.5t14.5 -34.5t-14.5 -34.5t-34.5 -14.5z" />
    <glyph glyph-name="gaikuangquanburiqi" unicode="&#xe6f1;" 
d="M512 896q-104 0 -198 -40.5t-162.5 -108.5t-109 -162.5t-40.5 -198.5t40.5 -198t109 -162.5t162.5 -109t198 -40.5t198.5 40.5t162.5 109t108.5 162.5t40.5 198t-40.5 198.5t-108.5 162.5t-162.5 108.5t-198.5 40.5zM512 -55q-90 0 -171.5 35t-140.5 94t-94 140.5
t-35 171.5t35 171.5t94 141t140.5 94.5t171.5 35t171.5 -35t141 -94.5t94.5 -141t35 -171.5t-35 -171.5t-94.5 -140.5t-141 -94t-171.5 -35zM399 575h1q9 0 15.5 6t6.5 16v45q0 9 -6.5 15.5t-15.5 6.5h-1q-9 0 -15.5 -6.5t-6.5 -15.5v-45q0 -10 6.5 -16t15.5 -6zM624 575h2
q9 0 15.5 6t6.5 16v45q0 9 -6.5 15.5t-15.5 6.5h-2q-9 0 -15.5 -6.5t-6.5 -15.5v-45q0 -10 6.5 -16t15.5 -6zM745 626h-88v-32q0 -13 -9 -22t-22 -9h-2q-13 0 -22 9t-9 22v32h-161v-32q0 -13 -9.5 -22t-22.5 -9h-2q-13 0 -22 9t-9 22v32h-88q-5 0 -8.5 -3.5t-3.5 -8.5v-494
q0 -5 3.5 -8.5t8.5 -3.5h466q5 0 8.5 3.5t3.5 8.5v494q0 5 -3.5 8.5t-8.5 3.5zM715 170q0 -7 -10 -7h-386q-10 0 -10 7v313q0 7 10 7h386q10 0 10 -7v-313zM347 449h94v-94h-94v94zM466 449h94v-94h-94v94zM578 449h94v-94h-94v94zM347 319h94v-94h-94v94zM466 319h94v-94
h-94v94zM578 319h94v-94h-94v94z" />
    <glyph glyph-name="tengxunweibo" unicode="&#xe614;" 
d="M513 -72q-91 0 -174 35.5t-143 95.5t-95.5 143t-35.5 173.5t35.5 173.5t95.5 143t143 95.5t174 35.5t174 -35.5t143 -95.5t95.5 -143t35.5 -173.5t-35.5 -173.5t-95.5 -143t-143 -95.5t-174 -35.5zM513 806q-117 0 -216.5 -57.5t-157 -157t-57.5 -216t57.5 -216t157 -157
t216.5 -57.5t216 57.5t156.5 157t57.5 216t-57.5 216t-156.5 157t-216 57.5zM377.5 599q-65.5 0 -112 -46t-46.5 -112q0 -38 17 -72q7 -13 19 -6q13 6 6 19q-14 28 -14 59q0 54 38 92t92 38t92 -38t38 -92t-38 -92t-92 -38q-15 0 -29 3q-6 2 -11 -1t-6 -9q-3 -14 11 -17
q17 -4 35 -4q66 0 112 46.5t46 112t-46 111.5t-111.5 46zM350 401q13 -9 29 -9q22 0 37.5 15t15.5 37t-15.5 37t-37 15t-37 -15t-15.5 -37q0 -11 4 -21q-19 -20 -35 -45q-74 -109 -61 -257q1 -5 5 -11t9 -6h2q5 0 9 7t3 13q-12 135 55 235q20 29 32 42zM671 483
q-17 -1 -34 7q-28 13 -38 42t3 56q13 28 42 38.5t56 -3.5q28 -13 38.5 -41.5t-3.5 -56.5q-3 -8 -8 -14t1 -11t11 1q6 7 11 17q16 34 3.5 69t-46 51t-68.5 3.5t-51 -46t-3.5 -68.5t45.5 -51q20 -9 41 -9q9 0 8 8q0 8 -8 8zM801 422q-71 27 -106 85q-7 12 -12 26q8 4 12 13
q5 11 1 22.5t-15.5 17t-23 1.5t-16.5 -15.5t-1 -23t15 -16.5q6 -3 12 -3q6 -15 14 -29q38 -64 115 -93q7 -2 10 4v1v0q3 8 -5 10z" />
    <glyph glyph-name="chengcheriqi" unicode="&#xe63f;" horiz-adv-x="1601" 
d="M800 896q-105 0 -199.5 -40.5t-163 -109t-109 -163.5t-40.5 -199t40.5 -199t109 -163.5t163 -109t199 -40.5t199 40.5t163 109t109.5 163.5t41 199t-41 199t-109.5 163.5t-163 109t-198.5 40.5v0zM800 -89q-97 0 -184.5 37.5t-150.5 101t-100.5 151t-37.5 183.5
t37.5 183.5t100.5 151t150.5 101t184 37.5t184 -37.5t150.5 -101t100.5 -151t37.5 -183.5t-37.5 -183.5t-100.5 -151t-150.5 -101t-183.5 -37.5v0zM800 -89zM1037 575h-91v37h-19v-37h-112v37h-19v-37h-122v37h-19v-37h-93q-5 0 -8.5 -3.5t-3.5 -9.5v-393q0 -5 3.5 -9
t8.5 -4h475q5 0 8.5 4t3.5 9v393q0 6 -3.5 9.5t-8.5 3.5v0zM1025 182h-451v367h81v-10h19v10h122v-10h19v10h112v-10h19v10h79v-367v0zM1025 182zM630 494h73v-54h-73v54v0zM630 494zM763 494h73v-54h-73v54v0zM763 494zM896 494h73v-54h-73v54v0zM896 494zM630 395h73v-54
h-73v54v0zM630 395zM763 395h73v-54h-73v54v0zM763 395zM896 395h73v-54h-73v54v0zM896 395zM630 295h73v-54h-73v54v0zM630 295zM763 295h73v-54h-73v54v0zM763 295zM896 295h73v-54h-73v54v0zM896 295z" />
    <glyph glyph-name="boda" unicode="&#xe628;" 
d="M256 774q43 0 109 -112q11 -19 15 -35.5t0.5 -28.5t-7.5 -19.5t-12.5 -17t-9.5 -12.5q-16 -23 -21 -34t-2.5 -31.5t17.5 -52.5q32 -64 94 -129q78 -82 166 -82q1 0 2 1q17 0 30 6t18 11.5t18 20.5q15 20 38 20q37 0 100 -54q3 -2 15.5 -12t20 -16.5t17 -17t13 -20.5
t1.5 -20q-2 -13 -23 -35.5t-44 -39.5q-37 -26 -95 -27h-2q-19 0 -57.5 9.5t-56.5 19.5q-77 42 -118.5 73.5t-110.5 97.5q-109 104 -185 234q-26 44 -35.5 84t-1.5 88q6 35 37.5 80t63.5 51h6v0zM256 819q-7 0 -14 -2q-50 -9 -89.5 -65t-47.5 -102q-10 -60 2.5 -107t39.5 -94
q80 -135 193 -244q72 -69 116 -102t122 -76q24 -13 67.5 -24t68.5 -11h1h2q72 2 120 36q11 8 25 19.5t35 37t25 45.5t-1.5 38.5t-19.5 35t-24 25t-26 21.5q-9 7 -12 9q-75 64 -128 64q-45 0 -72 -37l-3 -2q-11 -13 -15 -16t-14 -3h-1q-70 0 -135 68q-57 60 -86 118
q-15 31 -14.5 40t15.5 32l1 1q1 1 5 6q60 70 11 154q-36 62 -71 98.5t-76 36.5v0zM540 575q-6 7 -6 16t6.5 15.5t15.5 6.5h263q9 0 15.5 -6.5t6.5 -15.5t-6.5 -15.5t-15.5 -6.5h-263q-9 0 -16 6v0zM727 471q-6 6 -6 15.5t6 15.5l90 90l-106 96q-7 6 -7.5 15t6 16t15.5 7.5
t16 -5.5l106 -97q14 -12 14 -31q1 -19 -13 -33l-89 -89q-7 -7 -16 -7t-16 7v0z" />
    <glyph glyph-name="xihuanbiankuang" unicode="&#xe640;" 
d="M512 -128q-104 0 -199 40.5t-163.5 109t-109 163.5t-40.5 199t40.5 199t109 163.5t163.5 109t199 40.5t199 -40.5t163.5 -109t109 -163.5t40.5 -199t-40.5 -199t-109 -163.5t-163.5 -109t-199 -40.5zM512 829q-91 0 -173 -35t-142 -95t-95 -142t-35 -173t35 -173t95 -142
t142 -95t173 -35t173 35t142 95t95 142t35 173t-35 173t-95 142t-142 95t-173 35zM536 143h-0.5t-0.5 -1l-4 -2h-0.5h-0.5q-3 -1 -6 -1v0v0v0v0q-3 0 -6 1h-1l-4 2l-0.5 0.5l-0.5 0.5q-6 4 -43.5 35t-89 75.5t-78.5 71.5q-37 36 -49.5 77.5t-2.5 77.5t38 64q41 40 99 40.5
t99 -40.5l39 -37l38 37q40 40 98 40t99 -40q29 -28 38.5 -64.5t-3 -77.5t-48.5 -77q-27 -27 -78.5 -71.5t-88.5 -75.5t-43 -35zM721 489.5q-22 25.5 -51 32.5t-47 -9l-100 -87l-96 88q-18 16 -47 10t-52 -31t-26.5 -54.5t14.5 -45.5l152 -140q3 -20 18.5 -33.5t36.5 -13.5
q22 0 38 15t17 37l152 131q19 16 16 45.5t-25 55z" />
    <glyph glyph-name="12002" unicode="&#xe61d;" 
d="M1011 -55l-136 136h-1l-146 147l-62 1q0 -1 -0.5 -1.5l-0.5 -0.5q-100 -98 -239 -98q-92 0 -170.5 46t-124 124.5t-45.5 171t45.5 171t124 124t171 45.5t171 -45.5t124 -124t45.5 -171.5q0 -45 -13 -90l4 -4q-11 -12 -11 -29v-4q0 -18 12.5 -30.5t30.5 -12.5t31 14l2 -3
q1 2 2 6t2 5q4 7 5 15q22 66 22 132q0 116 -57 214.5t-155.5 155.5t-214.5 57t-214 -57t-155.5 -155.5t-57.5 -214.5t57.5 -214t155.5 -155t214 -57q152 0 270 96l254 -255q12 -12 30 -12t30.5 12.5t12.5 30t-13 30.5z" />
    <glyph glyph-name="fenxiang1" unicode="&#xe603;" 
d="M512 809q-117 0 -216.5 -58t-157.5 -157.5t-58 -216.5t58 -216.5t157.5 -157.5t216.5 -58t216.5 58t157.5 157.5t58 216.5t-58 216.5t-157.5 157.5t-216.5 58zM512 -22q-108 0 -200 53.5t-145.5 145.5t-53.5 200t53.5 200t145.5 145.5t200 53.5t200 -53.5t145.5 -145.5
t53.5 -200t-53.5 -200t-145.5 -145.5t-200 -53.5v0zM648 328q-44 0 -70 -34l-116 59q1 7 1 13q0 14 -4 26l123 63q26 -29 66 -29q36 0 61.5 25.5t25.5 61.5t-25.5 61.5t-61.5 25.5t-61.5 -25.5t-25.5 -61.5q0 -12 3 -24l-124 -64q-26 29 -64 29q-36 0 -61.5 -25.5t-25.5 -62
t25.5 -62t61.5 -25.5q46 0 72 38l115 -58q-2 -9 -2 -18q0 -36 25.5 -61.5t61.5 -25.5t61.5 25.5t25.5 61.5t-25.5 61.5t-61.5 25.5zM647.5 565q21.5 0 37 -15.5t15.5 -37t-15.5 -36.5t-37 -15t-36.5 15t-15 36.5t15 37t36.5 15.5zM376.5 314q-21.5 0 -37 15.5t-15.5 37
t15.5 36.5t37 15t36.5 -15t15 -36.5t-15 -37t-36.5 -15.5zM647.5 189q-21.5 0 -36.5 15.5t-15 37t15 36.5t36.5 15t37 -15t15.5 -36.5t-15.5 -37t-37 -15.5z" />
    <glyph glyph-name="chengjiaochaxun" unicode="&#xe607;" 
d="M990 -38l-273 273h-59q-45 -45 -104 -70t-123 -25q-136 0 -231.5 95.5t-95.5 231.5t95.5 231.5t231.5 95.5t231.5 -95.5t95.5 -231.5q0 -46 -13 -87l4 -4q-9 -18 -9 -27v-5q0 -17 12 -29t29 -12q20 0 27 14l5 -5q0 3 2 7.5t2 6.5q0 5 5 9q23 68 23 132q0 112 -54.5 206
t-149 148.5t-206 54.5t-205.5 -54.5t-148.5 -148.5t-54.5 -206t54.5 -206t148.5 -148.5t206 -54.5q137 0 259 91l241 -241q10 -10 27.5 -10t31.5 10q7 6 6 23.5t-11 30.5v0z" />
    <glyph glyph-name="goutong" unicode="&#xe608;" 
d="M318 -63v0q-20 0 -32 16q-11 15 -6 34l8 62h-172q-23 0 -39 16.5t-16 38.5v398q0 22 16 38.5t39 16.5h615q23 0 39 -16.5t16 -38.5v-398q0 -22 -16 -38.5t-39 -16.5h-246l-143 -105q-1 -1 -2 -1q-10 -6 -22 -6zM320 105v0q12 0 21 -9q6 -8 6 -19v-3l-8 -62l120 88
q7 5 16 5v0h256l-1 397l-614 -1l1 -397zM906 290h-60v56h56v353h-524v-61h-56v64q0 22 15.5 37.5t36.5 15.5h532q21 0 36.5 -15.5t15.5 -37.5v-360q0 -21 -15.5 -36.5t-36.5 -15.5z" />
    <glyph glyph-name="QQ" unicode="&#xe6ca;" 
d="M512 896q-139 0 -257 -68.5t-186.5 -186.5t-68.5 -257t68.5 -257t186.5 -186.5t257 -68.5t257 68.5t186.5 186.5t68.5 257t-68.5 257t-186.5 186.5t-257 68.5zM739 259q-17 -44 -46 -84q2 -1 5.5 -2.5t12.5 -7t15.5 -12t11.5 -18.5t3 -25q0 -2 -0.5 -5.5t-6.5 -12.5
t-16.5 -15.5t-34 -11.5t-55.5 -4q-9 1 -23.5 3t-43 12.5t-39.5 25.5h-21q-11 -15 -37.5 -25.5t-47.5 -12.5l-21 -3q-32 -1 -55.5 4t-34 11.5t-16.5 15.5t-6.5 12.5t-0.5 5.5q-2 21 10 37.5t25 21.5l13 6q-13 18 -24.5 39t-16.5 33l-5 12q-11 -19 -21 -30t-16.5 -14.5
t-11.5 -2.5t-8 6.5t-4.5 12t-2.5 14.5t-1 15v11v4q6 35 24 67.5t31.5 48t14.5 15.5q-3 31 2 52t13 26l7 5q1 46 13 82t28 58t39 38t40.5 23.5t39 11.5t27.5 4h12.5h12.5t27.5 -4t39 -11.5t40.5 -23.5t39 -38t28 -58t13 -82q1 0 3 -1.5t7 -7t7.5 -14.5t5 -24.5t-0.5 -35.5
q6 -6 16 -17t29 -45t25 -69v-9q1 -10 0 -21t-4.5 -21t-10 -12.5t-19 9t-29.5 38.5zM804 266q0 -9 -1 -17t-3 -18.5t-6.5 -14.5t-11 -4t-18 12t-25.5 35q-17 -44 -46 -84q2 -1 5.5 -2.5t12.5 -7t15.5 -12t11.5 -18.5t3 -25q0 -2 -0.5 -5.5t-6.5 -12.5t-16.5 -15.5t-34 -11.5
t-55.5 -4q-9 1 -23.5 3t-43 12.5t-39.5 25.5h-21q-11 -15 -37.5 -25.5t-47.5 -12.5l-21 -3q-32 -1 -55.5 4t-34 11.5t-16.5 15.5t-6.5 12.5t-0.5 5.5q-2 21 10 37.5t25 21.5l13 6q-13 18 -24.5 39t-16.5 33l-5 12q-11 -19 -21 -30t-16.5 -14.5t-11.5 -2.5t-8 6.5t-4.5 12
t-2.5 14.5t-1 15v11v4q6 35 24 67.5t31.5 48t14.5 15.5q-3 31 2 52t13 26l7 5q1 46 13 82t28 58t39 38t40.5 23.5t39 11.5t27.5 4h12.5h12.5t27.5 -4t39 -11.5t40.5 -23.5t39 -38t28 -58t13 -82q1 0 3 -1.5t7 -7t7.5 -14.5t5 -24.5t-0.5 -35.5q6 -6 16 -17t29 -45t25 -69
q2 0 2 -9z" />
    <glyph glyph-name="goutong1" unicode="&#xe6ef;" 
d="M765 625h-702q-26 0 -44.5 -18.5t-18.5 -44.5v-453q0 -26 18.5 -44.5t44.5 -18.5h196l-9 -71q-6 -22 7 -39q13 -19 37 -19q13 0 24 7q1 0 2 1l1 1l163 120h281q26 0 44.5 18.5t18.5 44.5v453q-1 26 -19 44.5t-44 18.5zM473 110q-10 0 -19 -6l-137 -101l10 71q2 14 -8 25
t-24 11l-231 -1l-1 452l701 1l1 -452h-292v0zM964 851h-606q-25 0 -42.5 -17.5t-17.5 -42.5v-73h63v69h599v-402h-64v-64h68q25 0 42.5 17.5t17.5 42.5v410q0 25 -17.5 42.5t-42.5 17.5z" />
    <glyph glyph-name="dianzan" unicode="&#xe611;" 
d="M518 853q-95 0 -182 -37t-150 -100t-100 -150t-37 -182t37 -182t100 -150t150 -100t182 -37t182 37t150 100t100 150t37 182t-37 182t-100 150t-150 100t-182 37zM371 154q0 -1 -0.5 -3.5t-4.5 -6t-11 -3.5h-81q-2 0 -5.5 0.5t-9 5.5t-5.5 14l-19 312q0 2 0.5 5.5
t5.5 8.5t13 5h94q2 0 6 -0.5t10.5 -6.5t6.5 -17v-314zM743 199q-2 -7 -5.5 -16.5t-14 -25.5t-20.5 -16h-234q-17 0 -37.5 10.5t-20.5 30.5v310q5 4 13 10.5t28 27t35 42t27.5 53.5t12.5 62q1 1 1.5 8.5t2.5 14t10.5 12t23.5 5.5q4 0 10.5 -2.5t21 -16.5t22 -36.5t6 -69.5
t-18.5 -110h156l4 0.5t10 -1.5t11.5 -5.5t9.5 -11.5t4 -19q0 -59 -58 -256z" />
    <glyph glyph-name="weixin" unicode="&#xe691;" 
d="M570 385q-8 0 -14.5 -6.5t-6.5 -14.5q0 -7 6.5 -13t14.5 -6q11 0 18.5 5.5t7.5 13.5t-7.5 14.5t-18.5 6.5zM503 534q-12 0 -21 -7t-9 -18t9 -18.5t21 -7.5t19 7t7 19t-7 18.5t-19 6.5zM359 534q-12 0 -21.5 -7t-9.5 -18t9.5 -18.5t21.5 -7.5q11 0 18.5 7t7.5 19
q0 11 -7.5 18t-18.5 7zM503 534q-12 0 -21 -7t-9 -18t9 -18.5t21 -7.5t19 7t7 19t-7 18.5t-19 6.5zM570 385q-8 0 -14.5 -6.5t-6.5 -14.5q0 -7 6.5 -13t14.5 -6q11 0 18.5 5.5t7.5 13.5t-7.5 14.5t-18.5 6.5zM685 385q-9 0 -15 -6.5t-6 -14.5t6 -13.5t15 -5.5q10 0 17.5 5.5
t7.5 13.5t-7.5 14.5t-17.5 6.5zM685 385q-9 0 -15 -6.5t-6 -14.5t6 -13.5t15 -5.5q10 0 17.5 5.5t7.5 13.5t-7.5 14.5t-17.5 6.5zM570 385q-8 0 -14.5 -6.5t-6.5 -14.5q0 -7 6.5 -13t14.5 -6q11 0 18.5 5.5t7.5 13.5t-7.5 14.5t-18.5 6.5zM503 534q-12 0 -21 -7t-9 -18
t9 -18.5t21 -7.5t19 7t7 19t-7 18.5t-19 6.5zM359 534q-12 0 -21.5 -7t-9.5 -18t9.5 -18.5t21.5 -7.5q11 0 18.5 7t7.5 19q0 11 -7.5 18t-18.5 7zM511 832q-91 0 -174 -35.5t-143 -95.5t-95.5 -143t-35.5 -174t35.5 -174t95.5 -142.5t143 -95t174 -35.5t174 35.5t143 95
t95.5 142.5t35 174t-35.5 174t-95 143t-143 95.5t-174 35.5zM445 271q-6 -1 -19 -1q-30 0 -72 12l-74 -37l21 63q-82 58 -82 139q0 74 60.5 124.5t146.5 50.5q76 0 135 -40.5t72 -103.5q-12 2 -19 2q-74 0 -125 -48t-51 -116q1 -22 7 -45zM690 178q-50 -10 -63 -10
q-73 0 -124 43.5t-51 106.5t51 106.5t124 43.5q70 0 122.5 -44.5t52.5 -105.5q0 -65 -72 -118l15 -53zM685 385q-9 0 -15 -6.5t-6 -14.5t6 -13.5t15 -5.5q10 0 17.5 5.5t7.5 13.5t-7.5 14.5t-17.5 6.5zM570 385q-8 0 -14.5 -6.5t-6.5 -14.5q0 -7 6.5 -13t14.5 -6
q11 0 18.5 5.5t7.5 13.5t-7.5 14.5t-18.5 6.5zM529 509q0 12 -7 18.5t-19 6.5t-21 -7t-9 -18t9 -18.5t21 -7.5t19 7t7 19zM359 534q-12 0 -21.5 -7t-9.5 -18t9.5 -18.5t21.5 -7.5q11 0 18.5 7t7.5 19q0 11 -7.5 18t-18.5 7zM359 534q-12 0 -21.5 -7t-9.5 -18t9.5 -18.5
t21.5 -7.5q11 0 18.5 7t7.5 19q0 11 -7.5 18t-18.5 7zM503 534q-12 0 -21 -7t-9 -18t9 -18.5t21 -7.5t19 7t7 19t-7 18.5t-19 6.5zM570 385q-8 0 -14.5 -6.5t-6.5 -14.5q0 -7 6.5 -13t14.5 -6q11 0 18.5 5.5t7.5 13.5t-7.5 14.5t-18.5 6.5zM685 385q-9 0 -15 -6.5t-6 -14.5
t6 -13.5t15 -5.5q10 0 17.5 5.5t7.5 13.5t-7.5 14.5t-17.5 6.5zM359 534q-12 0 -21.5 -7t-9.5 -18t9.5 -18.5t21.5 -7.5q11 0 18.5 7t7.5 19q0 11 -7.5 18t-18.5 7zM685 385q-9 0 -15 -6.5t-6 -14.5t6 -13.5t15 -5.5q10 0 17.5 5.5t7.5 13.5t-7.5 14.5t-17.5 6.5zM803 318
q0 61 -53 105t-123 44q-73 0 -124 -43.5t-51 -105.5q0 -63 51 -107t124 -44q10 0 20 1.5t23.5 5t19.5 4.5l56 -32l-16 53q73 54 73 119zM570 344q-8 0 -14.5 6t-6.5 13q0 9 6.5 15t14.5 6q11 0 18.5 -6t7.5 -15q0 -7 -7.5 -13t-18.5 -6zM685 344q-8 0 -14.5 6t-6.5 13
q0 9 6 15t15 6q11 0 18 -6t7 -15q0 -7 -7.5 -13t-17.5 -6zM426 621q-86 0 -146 -50.5t-61 -124.5q0 -80 83 -138l-21 -63l74 37q41 -11 72 -11h18q-5 24 -5 44q0 68 50.5 116t124.5 48q8 0 20 -2q-14 63 -73 103.5t-136 40.5zM359 483q-12 0 -21.5 7.5t-9.5 18.5t9.5 18
t21.5 7q11 0 18.5 -7t7.5 -18q0 -12 -7.5 -19t-18.5 -7zM503 483q-12 0 -21 7.5t-9 18.5t9 18t21 7t19 -6.5t7 -18.5t-7 -19t-19 -7z" />
    <glyph glyph-name="qqkongjian" unicode="&#xe655;" 
d="M659 452q-50 9 -103 12t-89 1t-71.5 -6.5t-46.5 -7t-17 -3.5v0q24 1 56.5 -0.5t61 -4t53.5 -5.5t40.5 -5t14.5 -2l-191 -141q135 -20 298 4l-2 9q-34 2 -81 6t-77 7l-29 4zM512 832q-91 0 -174 -35.5t-143 -95.5t-95.5 -143t-35.5 -174t35.5 -173.5t95.5 -142.5
t143 -95.5t174 -35.5t173.5 35.5t142.5 95.5t95.5 142.5t35.5 173.5t-35.5 174t-95.5 143t-142.5 95.5t-173.5 35.5zM663 303q27 -2 45 -2q-16 -3 -43 -7l29 -171l-185 97l-186 -97l35 207l-150 146l208 30l93 188l92 -188l208 -30l-150 -146zM802 464z" />
    <glyph glyph-name="weibo" unicode="&#xe601;" 
d="M411.5 288.5q-13.5 5.5 -29 0.5t-23.5 -18t-4.5 -26.5t16.5 -19.5q13 -7 29 -1.5t24 19t4.5 27t-17 19zM456 307q-13 4 -20 -8t5 -17q13 -5 20 7q7 13 -5 18v0zM428 426.5q-87 -8.5 -144.5 -55t-52 -103t71 -91t152.5 -26t144.5 55t52 103.5t-71 91t-152.5 25.5zM529 248
q-17 -40 -61.5 -59t-87.5 -5q-42 14 -58 50t3 73q18 36 59 54t82 7q43 -11 62 -46t1 -74zM512 896q-104 0 -199 -40.5t-163.5 -109t-109 -163.5t-40.5 -199t40.5 -199t109 -163.5t163.5 -109t199 -40.5t199 40.5t163.5 109t109 163.5t40.5 199t-40.5 199t-109 163.5
t-163.5 109t-199 40.5v0zM456 101q-75 0 -141 22t-109.5 65t-43.5 99q0 92 104 196q66 66 133.5 92t96.5 -3q25 -25 8 -81q-4 -12 7 -11q9 1 9 3q55 22 97 22.5t60 -23.5q17 -25 -1 -70q-3 -9 0 -12t12 -6q35 -11 60 -35t25 -60q0 -33 -23.5 -68t-63.5 -64t-101 -47.5
t-129 -18.5v0zM719 468q2 7 2 14q0 17 -12 29q-13 15 -32 15q-5 0 -10 -1q-12 -3 -21 7t-5 22.5t17 15.5q51 11 86 -28q9 -10 16 -28t7 -32t-4 -28q-3 -7 -9 -11.5t-13 -4.5q-4 0 -7 1q-7 2 -11.5 8.5t-4.5 13.5q0 4 1 7v0zM853 425v0q-2 -8 -9.5 -13.5t-15.5 -5.5
q-4 0 -9 2q-7 2 -12.5 9.5t-5.5 15.5q0 4 1 8q7 20 7 41t-10 46.5t-24 41.5q-17 18 -45.5 30.5t-52.5 12.5q-14 0 -28 -3h-5q-9 0 -17 6t-10 15q-2 11 4 20t17 12q48 10 95.5 -5t80.5 -52q34 -37 44.5 -85.5t-5.5 -95.5z" />
    <glyph glyph-name="weixin1" unicode="&#xe73a;" horiz-adv-x="1031" 
d="M581 384q-9 0 -16.5 -7t-7.5 -17q0 -8 7.5 -14.5t16.5 -6.5q12 0 21 6.5t9 14.5q0 10 -8.5 17t-21.5 7zM504 497q14 0 22 8t8 21q0 14 -8 21.5t-22 7.5t-24 -8t-10 -21q0 -12 10 -20.5t24 -8.5zM513 896q-104 0 -199 -40.5t-163.5 -109t-109 -163.5t-40.5 -199t40.5 -199
t109 -163.5t163.5 -109t199 -40.5t199 40.5t163.5 109t109 163.5t40.5 199t-40.5 199t-109 163.5t-163.5 109t-199 40.5zM416 254q-36 0 -82 14l-85 -43l25 72q-95 66 -95 158q0 85 69.5 143t167.5 58q87 0 155 -47t83 -119q-12 3 -22 3q-85 0 -143 -55t-58 -133
q0 -23 6 -50q-6 -1 -21 -1zM764 173l17 -61l-63 36q-5 -1 -22 -5t-28 -5.5t-22 -1.5q-84 0 -142 50t-58 121.5t58 122t142 50.5q80 0 140.5 -51t60.5 -121q0 -75 -83 -135zM339 555q-14 0 -25 -8t-11 -21q0 -12 11 -20.5t25 -8.5q12 0 21 8t9 21q0 14 -8.5 21.5t-21.5 7.5z
M712 384q-10 0 -17 -7t-7 -17q0 -8 7.5 -14.5t16.5 -6.5q12 0 20.5 6.5t8.5 14.5q0 10 -8.5 17t-20.5 7z" />
    <glyph glyph-name="qq1" unicode="&#xe600;" 
d="M512 896q-139 0 -257 -68.5t-186.5 -186.5t-68.5 -257t68.5 -257t186.5 -186.5t257 -68.5t257 68.5t186.5 186.5t68.5 257t-68.5 257t-186.5 186.5t-257 68.5v0zM739 259q-16 -44 -46 -84q2 -1 5.5 -2.5t12.5 -7t15.5 -12.5t11.5 -18.5t4 -24.5q0 -2 -1 -5.5t-6.5 -12.5
t-16.5 -15.5t-34.5 -11.5t-55.5 -4q-9 1 -23 3t-42.5 12.5t-39.5 25.5h-22q-11 -15 -37 -25.5t-47 -12.5l-21 -3q-32 -1 -55.5 4t-34.5 11.5t-17 15.5t-6.5 12.5t-0.5 5.5q-4 42 44 63l5 2q-13 18 -24.5 39t-16.5 33l-5 12q-15 -24 -26.5 -35.5t-18 -12.5t-11 5.5t-6.5 15
t-2.5 20t-0.5 16v7.5v0q6 35 24 67.5t31.5 47.5t15.5 15q-4 32 1.5 53t12.5 26l7 5q1 45 13 81.5t28.5 58.5t39 38t41 23t38.5 11t27.5 4.5t12.5 0.5t12.5 -0.5t27.5 -4.5t38.5 -11t41 -23t39 -38t28.5 -58.5t13 -81.5q1 0 3 -1.5t7 -7.5t7.5 -14.5t5 -24t-1.5 -36.5
q7 -6 16.5 -16.5t29 -44.5t25.5 -69v0v0v-4.5v-10.5t-1 -15t-3 -15t-4.5 -12.5t-7.5 -6t-11.5 2.5t-16.5 15t-21 30v0zM739 259z" />
    <glyph glyph-name="qqkongjian2-copy-copy" unicode="&#xe604;" 
d="M669 457q-98 15 -175.5 14t-125.5 -10l-48 -9q41 2 101.5 -2.5t100.5 -10.5l39 -5l-203 -150q143 -22 317 4l-1 9q-38 2 -88 6.5t-81 8.5l-32 3zM512 862q-97 0 -185.5 -38t-152.5 -102t-101.5 -152.5t-37.5 -185.5t37.5 -185t101.5 -152t152.5 -102t185.5 -38t185 38
t152 102t102 152t38 185t-38 185.5t-102 152.5t-152 102t-185 38zM674 297q28 -1 47 -1q-17 -4 -46 -8l31 -183l-198 105l-198 -105l38 221l-160 156l221 32l99 201l99 -201l222 -32l-160 -156zM821 469z" />
    <glyph glyph-name="weixin2" unicode="&#xe605;" 
d="M580 385q-9 0 -16.5 -7.5t-7.5 -17.5q0 -8 7.5 -14.5t16.5 -6.5q12 0 21 6.5t9 14.5q0 11 -8.5 18t-21.5 7zM503 556q-14 0 -24.5 -8t-10.5 -22q0 -12 10.5 -20.5t24.5 -8.5t22 8t8 21q0 14 -8 22t-22 8zM338 556q-14 0 -25 -8.5t-11 -21.5q0 -12 11 -20.5t25 -8.5
q12 0 21 8.5t9 20.5q0 14 -8.5 22t-21.5 8zM503 556q-14 0 -24.5 -8t-10.5 -22q0 -12 10.5 -20.5t24.5 -8.5t22 8t8 21q0 14 -8 22t-22 8zM580 385q-9 0 -16.5 -7.5t-7.5 -17.5q0 -8 7.5 -14.5t16.5 -6.5q12 0 21 6.5t9 14.5q0 11 -8.5 18t-21.5 7zM711 385q-10 0 -17 -7.5
t-7 -17.5q0 -8 7 -14.5t17 -6.5q12 0 20.5 6.5t8.5 14.5q0 10 -8.5 17.5t-20.5 7.5zM711 385q-10 0 -17 -7.5t-7 -17.5q0 -8 7 -14.5t17 -6.5q12 0 20.5 6.5t8.5 14.5q0 10 -8.5 17.5t-20.5 7.5zM580 385q-9 0 -16.5 -7.5t-7.5 -17.5q0 -8 7.5 -14.5t16.5 -6.5q12 0 21 6.5
t9 14.5q0 11 -8.5 18t-21.5 7zM503 556q-14 0 -24.5 -8t-10.5 -22q0 -12 10.5 -20.5t24.5 -8.5t22 8t8 21q0 14 -8 22t-22 8zM338 556q-14 0 -25 -8.5t-11 -21.5q0 -12 11 -20.5t25 -8.5q12 0 21 8.5t9 20.5q0 14 -8.5 22t-21.5 8zM512 896q-139 0 -257 -68.5t-186.5 -186.5
t-68.5 -257t68.5 -257t186.5 -186.5t257 -68.5t257 68.5t186.5 186.5t68.5 257t-68.5 257t-186.5 186.5t-257 68.5zM436 255q-6 -1 -21 -1q-35 0 -82 13l-85 -42l24 72q-94 67 -94 159q0 84 69.5 142t167.5 58q87 0 154.5 -46.5t82.5 -118.5q-13 3 -22 3q-85 0 -143 -55
t-58 -133q1 -24 7 -51zM716 148q-57 -12 -71 -12q-84 0 -142.5 50.5t-58.5 122t58.5 121.5t142.5 50q80 0 140 -50.5t60 -121.5q0 -74 -82 -135l17 -60zM711 385q-10 0 -17 -7.5t-7 -17.5q0 -8 7 -14.5t17 -6.5q12 0 20.5 6.5t8.5 14.5q0 10 -8.5 17.5t-20.5 7.5zM580 385
q-9 0 -16.5 -7.5t-7.5 -17.5q0 -8 7.5 -14.5t16.5 -6.5q12 0 21 6.5t9 14.5q0 11 -8.5 18t-21.5 7zM533 526q0 14 -8 22t-22 8t-24.5 -8t-10.5 -22q0 -12 10.5 -20.5t24.5 -8.5t22 8t8 21zM338 556q-14 0 -25 -8.5t-11 -21.5q0 -12 11 -20.5t25 -8.5q12 0 21 8.5t9 20.5
q0 14 -8.5 22t-21.5 8zM338 556q-14 0 -25 -8.5t-11 -21.5q0 -12 11 -20.5t25 -8.5q12 0 21 8.5t9 20.5q0 14 -8.5 22t-21.5 8zM503 556q-14 0 -24.5 -8t-10.5 -22q0 -12 10.5 -20.5t24.5 -8.5t22 8t8 21q0 14 -8 22t-22 8zM580 385q-9 0 -16.5 -7.5t-7.5 -17.5
q0 -8 7.5 -14.5t16.5 -6.5q12 0 21 6.5t9 14.5q0 11 -8.5 18t-21.5 7zM711 385q-10 0 -17 -7.5t-7 -17.5q0 -8 7 -14.5t17 -6.5q12 0 20.5 6.5t8.5 14.5q0 10 -8.5 17.5t-20.5 7.5zM338 556q-14 0 -25 -8.5t-11 -21.5q0 -12 11 -20.5t25 -8.5q12 0 21 8.5t9 20.5
q0 14 -8.5 22t-21.5 8zM711 385q-10 0 -17 -7.5t-7 -17.5q0 -8 7 -14.5t17 -6.5q12 0 20.5 6.5t8.5 14.5q0 10 -8.5 17.5t-20.5 7.5zM846 308q0 70 -60.5 120.5t-140.5 50.5q-83 0 -141.5 -50t-58.5 -121q0 -72 58.5 -122t141.5 -50q11 0 22.5 1.5t27 5.5t22.5 5l63 -36
l-17 61q83 61 83 135zM580 338q-9 0 -16.5 7t-7.5 15q0 10 7.5 17t16.5 7q13 0 21.5 -7t8.5 -17q0 -8 -9 -15t-21 -7zM711 338q-9 0 -16.5 7t-7.5 15q0 10 7 17t17 7q12 0 20.5 -7t8.5 -17q0 -8 -8.5 -15t-20.5 -7zM415 655q-98 0 -167 -57.5t-69 -142.5q0 -92 94 -159
l-24 -71l84 42q48 -13 83 -13q14 0 21 1q-7 27 -7 50q0 78 58.5 133t142.5 55q9 0 22 -3q-15 72 -83 118.5t-155 46.5zM338 497q-14 0 -25 8.5t-11 20.5q0 13 11 21.5t25 8.5q13 0 21.5 -8t8.5 -22q0 -13 -9 -21t-21 -8zM503 497q-14 0 -24.5 8.5t-10.5 20.5q0 14 10.5 22
t24.5 8t22 -8t8 -22q0 -13 -8 -21t-22 -8z" />
  </font>
</defs>
</svg>
